<svg width="145" height="357" viewBox="0 0 145 357" fill="none" xmlns="http://www.w3.org/2000/svg">
<path d="M44.9388 148.96C43.9545 137.393 44.4294 131.745 43.2119 127.916C40.3883 125.645 29.9143 119.544 21.1328 114.862C19.5511 114.014 18.3686 112.567 17.8455 110.84C17.3225 109.113 17.5017 107.248 18.3438 105.654C20.0707 102.338 22.2985 105.323 25.597 107.081C36.045 112.686 51.0695 115.828 53.9621 119.526C57.2261 123.695 56.3194 151.275 56.3194 151.275L44.9388 148.96Z" fill="#080C20"/>
<path fill-rule="evenodd" clip-rule="evenodd" d="M56.1209 152.128C56.1782 152.136 56.2364 152.136 56.2936 152.128C56.4991 152.137 56.7012 152.072 56.8635 151.945C57.0628 151.786 57.1828 151.548 57.1917 151.292C57.1945 151.134 57.1995 150.908 57.2059 150.621C57.3148 145.715 57.8184 123.031 54.653 118.969C52.9174 116.759 47.8488 114.94 41.4246 112.651C36.3733 110.85 30.7089 108.813 26.0115 106.298C25.2498 105.891 24.5118 105.441 23.801 104.949L23.794 104.944C22.2773 103.911 20.9667 103.017 19.6046 103.365C18.6786 103.657 17.9269 104.344 17.5495 105.245C15.5845 108.99 16.9935 113.632 20.7012 115.627C28.8524 119.988 39.3091 126.045 42.4435 128.456C43.0813 130.593 43.2029 133.423 43.3837 137.632L43.3847 137.655C43.3947 137.872 43.4048 138.093 43.4151 138.317C43.5467 141.193 43.7077 144.712 44.0841 149.047C44.1151 149.434 44.397 149.754 44.7749 149.83L56.1209 152.128ZM55.4561 150.204L45.7506 148.229C45.4121 144.184 45.2617 140.867 45.1379 138.136C45.129 137.941 45.1203 137.748 45.1116 137.559C44.9217 133.033 44.7835 130.048 44.0064 127.646C43.9571 127.483 43.8573 127.339 43.7214 127.237C40.7511 124.853 30.0958 118.673 21.5128 114.078C18.6458 112.533 17.5574 108.942 19.0778 106.046C19.3887 105.454 19.7082 105.114 20.019 105.036C20.6407 104.879 21.7114 105.602 22.834 106.376C23.5857 106.904 24.3639 107.392 25.1653 107.838C29.9231 110.387 35.6104 112.424 40.6473 114.228L40.8115 114.287C46.4846 116.315 51.8381 118.23 53.2628 120.049C55.4561 122.833 55.7669 139.221 55.4561 150.204Z" fill="#093F68"/>
<path d="M44.939 148.96V162.649C44.939 162.649 65.5674 166.635 63.9354 163.52C62.3035 160.404 55.7669 158.646 55.7669 158.646L56.3109 151.231L44.939 148.96Z" fill="#080C20"/>
<path fill-rule="evenodd" clip-rule="evenodd" d="M44.8093 163.502C52.831 165.051 57.6578 165.547 60.5505 165.547C63.3136 165.547 64.3066 165.13 64.652 164.651C64.9735 164.205 64.9973 163.608 64.7124 163.137C63.2273 160.352 58.4868 158.611 56.6907 158.046L57.1829 151.327C57.2177 150.887 56.921 150.491 56.4921 150.404L45.1461 148.107C44.8934 148.054 44.6305 148.118 44.4294 148.281C44.2265 148.447 44.109 148.696 44.1099 148.96V162.632C44.1023 163.055 44.3973 163.422 44.8093 163.502ZM63.0718 163.668C61.2154 164.277 53.1073 163.285 45.8714 161.927V150.021L55.4387 151.962L54.9552 158.611C54.9414 159.016 55.2062 159.376 55.5941 159.482C57.2347 159.934 61.6471 161.527 63.0718 163.668Z" fill="#093F68"/>
<path d="M34.0159 66.8649C34.0159 66.8649 44.5417 80.4154 47.0803 79.9193C49.6189 79.4233 56.9498 74.5148 60.7923 72.8874C66.9489 70.2765 76.6543 71.5297 74.0121 73.7577C71.3699 75.9856 72.1124 73.9317 72.1124 73.9317C57.8046 83.4266 47.9351 89.597 46.6917 89.4925C40.5092 89.1705 28.9214 77.5347 28.9214 77.5347L34.0159 66.8649Z" fill="#080C20"/>
<path fill-rule="evenodd" clip-rule="evenodd" d="M46.6486 90.3541H46.735C47.4085 90.3541 49.8003 89.7449 71.5426 75.3764L71.6376 75.4547C72.4061 76.003 73.3646 75.446 74.5734 74.4452C74.9274 74.2364 75.1844 73.8944 75.2881 73.4945C75.3917 73.0946 75.3334 72.6695 75.1261 72.3129C73.7963 70.1285 65.4465 70.0328 60.447 72.1389C58.2608 73.1592 56.1281 74.2921 54.0573 75.533C51.32 77.0996 48.2029 78.8663 46.9336 79.1099C45.5002 79.1099 39.4645 72.4957 34.6981 66.3601C34.5146 66.1225 34.2223 65.9974 33.9253 66.0293C33.6282 66.0611 33.3686 66.2455 33.2389 66.5168L28.1444 77.1692C27.9805 77.5038 28.0465 77.9063 28.3084 78.17C28.3328 78.1929 28.3851 78.2436 28.4631 78.3193C29.9317 79.7445 40.5323 90.0318 46.6486 90.3541ZM46.7436 88.6135C41.6059 88.3089 32.1163 79.3884 29.9663 77.2997L34.1714 68.475C43.2897 80.0412 46.3464 80.9376 47.2099 80.7722C48.7503 80.4837 51.6036 78.8638 54.6579 77.1296C54.7368 77.0849 54.8157 77.04 54.8948 76.9951C57.1485 75.7071 59.4799 74.3755 61.0946 73.688C65.956 71.6428 72.2507 72.2607 73.4596 73.0266C73.2264 73.2181 73.0365 73.366 72.881 73.4791C72.8183 73.372 72.7397 73.2751 72.6479 73.1919C72.3444 72.9685 71.9324 72.9685 71.629 73.1919C50.4997 87.2298 47.1926 88.5439 46.7436 88.6135Z" fill="#093F68"/>
<rect x="-6.10986" y="149.499" width="38.1138" height="6.03983" fill="#080C20"/>
<path fill-rule="evenodd" clip-rule="evenodd" d="M-6.10991 156.427H32.0039C32.4808 156.427 32.8674 156.037 32.8674 155.556V149.464C32.8674 148.984 32.4808 148.594 32.0039 148.594H-6.10991C-6.5868 148.594 -6.97339 148.984 -6.97339 149.464V155.556C-6.97339 156.037 -6.5868 156.427 -6.10991 156.427ZM31.1404 154.686H-5.24644V150.335H31.1404V154.686Z" fill="#093F68"/>
<path d="M-7.96631 164.799H-9.9005C-10.4517 164.799 -10.9731 164.547 -11.3187 164.114C-11.6642 163.681 -11.7968 163.114 -11.6793 162.571L-2.18103 118.995H3.47474L-6.15301 163.38C-6.3517 164.224 -7.10627 164.814 -7.96631 164.799Z" fill="#080C20"/>
<path fill-rule="evenodd" clip-rule="evenodd" d="M-9.90053 165.669H-7.96635C-6.69363 165.698 -5.57579 164.822 -5.28957 163.572L4.33818 119.187C4.39612 118.927 4.33247 118.654 4.16549 118.447C4.00279 118.245 3.75886 118.127 3.50061 118.125H-2.15516C-2.56936 118.116 -2.93173 118.404 -3.01863 118.813L-12.5169 162.388C-12.6958 163.187 -12.5017 164.024 -11.9901 164.66C-11.4817 165.298 -10.713 165.67 -9.90053 165.669ZM-10.8331 162.771L-1.52482 119.874H2.36082L-7.03379 163.18C-7.12776 163.623 -7.51691 163.939 -7.96635 163.937H-9.90053C-10.1898 163.939 -10.4641 163.808 -10.6457 163.581C-10.8272 163.354 -10.8962 163.056 -10.8331 162.771Z" fill="#093F68"/>
<path d="M34.3182 164.799H36.2438C36.795 164.799 37.3164 164.547 37.662 164.114C38.0075 163.681 38.1401 163.114 38.0225 162.571L28.602 119.004H22.9031L32.5308 163.389C32.7308 164.22 33.4704 164.803 34.3182 164.799Z" fill="#080C20"/>
<path fill-rule="evenodd" clip-rule="evenodd" d="M34.318 165.669H36.2435L36.3299 165.643C37.1374 165.636 37.8986 165.262 38.4014 164.625C38.9042 163.988 39.0949 163.157 38.9203 162.362L29.4653 118.787C29.3784 118.378 29.016 118.09 28.6018 118.099H22.9374C22.6791 118.101 22.4352 118.219 22.2725 118.421C22.1055 118.628 22.0419 118.901 22.0998 119.161L31.7276 163.546C31.9993 164.773 33.0709 165.651 34.318 165.669ZM33.3768 163.18L23.9822 119.874H27.8678L37.1761 162.771C37.2392 163.056 37.1702 163.354 36.9887 163.581C36.8071 163.808 36.5328 163.939 36.2435 163.937H34.318C33.8665 163.94 33.4744 163.625 33.3768 163.18Z" fill="#093F68"/>
<rect x="-12.1628" y="115.854" width="42.8629" height="6.27481" rx="2.21" fill="#080C20"/>
<path fill-rule="evenodd" clip-rule="evenodd" d="M-10.2546 123.008H28.8004C29.5355 123.008 30.2405 122.713 30.7603 122.189C31.2801 121.665 31.5722 120.955 31.5722 120.214V117.786C31.5722 116.241 30.3326 114.988 28.8004 114.983H-10.2546C-11.7868 114.988 -13.0264 116.241 -13.0264 117.786V120.214C-13.0264 121.757 -11.7854 123.008 -10.2546 123.008ZM-11.2994 117.786C-11.2994 117.203 -10.833 116.729 -10.2546 116.724H28.8004C29.3788 116.729 29.8452 117.203 29.8452 117.786V120.214C29.8452 120.795 29.3774 121.267 28.8004 121.267H-10.2546C-10.8316 121.267 -11.2994 120.795 -11.2994 120.214V117.786Z" fill="#093F68"/>
<path d="M41.4591 148.96C40.4661 137.393 40.9497 131.745 39.7322 127.916C36.9086 125.645 26.4346 119.544 17.6531 114.862C14.395 113.08 13.1709 108.984 14.9105 105.685C16.6502 102.387 20.7031 101.118 23.991 102.843C34.4477 108.439 47.5898 115.828 50.4824 119.526C53.7377 123.695 52.8397 151.275 52.8397 151.275L41.4591 148.96Z" fill="#080C20"/>
<path fill-rule="evenodd" clip-rule="evenodd" d="M52.6065 152.128C52.6638 152.137 52.722 152.137 52.7792 152.128L52.7706 152.18C53.2475 152.18 53.6341 151.79 53.6341 151.309C53.6368 151.181 53.6409 151.008 53.646 150.794C53.7544 146.233 54.3043 123.093 51.1041 118.987C48.7554 115.993 39.9998 110.458 24.3363 102.068C20.6205 100.088 16.0153 101.508 14.0351 105.245C12.0701 108.99 13.4791 113.632 17.1868 115.627C25.3293 119.988 35.7947 126.045 38.9291 128.456C39.5669 130.593 39.6885 133.423 39.8693 137.632L39.8703 137.655C39.9998 140.648 40.1639 144.373 40.5697 149.047C40.5997 149.431 40.8773 149.75 41.2518 149.83L52.6065 152.128ZM51.9417 150.204L42.2276 148.229H42.2621C41.973 144.689 41.8163 141.707 41.684 139.188C41.6542 138.622 41.6257 138.079 41.5972 137.559L41.5959 137.529C41.3981 133.02 41.2674 130.043 40.492 127.646C40.4427 127.483 40.3429 127.339 40.207 127.237C37.2367 124.853 26.5814 118.673 17.9984 114.078C16.1398 113.083 14.949 111.165 14.8745 109.045C14.8001 106.925 15.8534 104.926 17.6377 103.801C19.4219 102.676 21.666 102.596 23.5247 103.591C38.765 111.746 47.5552 117.264 49.7484 120.049C51.9417 122.833 52.2525 139.221 51.9417 150.204Z" fill="#093F68"/>
<path d="M49.3253 78.6313C45.4396 77.117 32.6429 64.315 31.3736 63.6971L30.7692 63.4099C26.5315 61.5133 22.0893 60.1201 17.5321 59.2586C12.1699 58.3883 6.57459 58.6406 3.46608 62.322C-3.77848 70.9118 -4.11523 95.9588 -4.11523 95.9588L28.9473 102.051C31.1524 95.6026 32.884 88.9995 34.1281 82.2952C38.0051 85.5588 43.2032 89.3272 46.683 89.5099L49.3253 78.6313Z" fill="#080C20"/>
<path fill-rule="evenodd" clip-rule="evenodd" d="M28.7659 102.895H28.9213C29.2957 102.9 29.6305 102.661 29.7502 102.303C31.8172 96.2742 33.4845 90.1135 34.7411 83.8617C39.8529 88.013 43.8681 90.1888 46.6657 90.3367C47.0722 90.3486 47.4318 90.0732 47.5292 89.6753L50.1196 78.8227C50.2227 78.3982 49.9973 77.9624 49.5929 77.8045C47.2712 76.9019 41.2152 71.3688 36.9147 67.4396C36.7368 67.277 36.5619 67.1172 36.3904 66.9606C33.325 64.1409 32.2025 63.14 31.719 62.9051C31.719 62.9051 31.4945 62.7832 31.08 62.6005C26.7757 60.668 22.2601 59.2541 17.627 58.3882C10.6156 57.2308 5.6161 58.3621 2.76663 61.7476C-4.58155 70.4679 -5.00465 94.897 -5.00465 95.9327C-5.01154 96.3583 -4.71202 96.7264 -4.2966 96.803L28.7659 102.895ZM28.3428 101.033L-3.26043 95.2365C-3.13091 91.0677 -2.18109 70.3287 4.10501 62.8877C6.54002 59.9983 11.0042 59.0671 17.3766 60.1201C21.8641 60.9638 26.2374 62.3367 30.4065 64.2105L30.9764 64.4716C31.3114 64.6667 32.8272 66.0519 34.4616 67.5455C34.723 67.7844 34.9875 68.0261 35.2506 68.2661C39.5421 72.2085 45.3014 77.4912 48.3063 79.1186L46.044 88.5265C43.445 88.0391 39.4643 85.611 34.698 81.6077C34.4599 81.401 34.1291 81.341 33.8345 81.451C33.5446 81.5587 33.3339 81.8142 33.2819 82.1211C32.0848 88.5355 30.4342 94.8555 28.3428 101.033Z" fill="#093F68"/>
<path d="M34.3095 81.3031H34.1368C33.9123 81.257 33.7153 81.1229 33.589 80.9303C33.4626 80.7377 33.4174 80.5024 33.4633 80.2761L35.1902 71.9823C35.2856 71.5016 35.7495 71.1899 36.2264 71.286C36.7033 71.3822 37.0126 71.8497 36.9172 72.3304L35.1902 80.6243C35.0986 81.0357 34.7275 81.3218 34.3095 81.3031Z" fill="#093F68"/>
<path d="M16.9709 75.3677C16.8934 75.3761 16.8152 75.3761 16.7377 75.3677C16.5166 75.3066 16.3287 75.1595 16.2153 74.9587C16.1019 74.7579 16.0724 74.5199 16.1333 74.2972C17.4112 69.6237 16.6514 59.5022 16.6427 59.363C16.607 58.8823 16.9646 58.4635 17.4415 58.4274C17.9183 58.3914 18.3339 58.7518 18.3697 59.2324C18.3697 59.6589 19.1641 69.7978 17.7998 74.7585C17.6861 75.1229 17.3499 75.37 16.9709 75.3677Z" fill="#093F68"/>
<path d="M28.9214 80.1195C28.8151 80.1168 28.7101 80.0962 28.6105 80.0585C28.3964 79.9766 28.2233 79.8123 28.1294 79.6018C28.0355 79.3912 28.0284 79.1517 28.1097 78.9359C29.8365 73.9994 30.4443 68.7359 29.8885 63.5317C29.8218 63.0559 30.1504 62.6156 30.6224 62.5483C30.8505 62.5161 31.0818 62.5771 31.265 62.7176C31.4482 62.8582 31.5682 63.0666 31.5982 63.2967C32.2151 68.7888 31.5741 74.3504 29.7244 79.5538C29.5991 79.892 29.2796 80.117 28.9214 80.1195Z" fill="#093F68"/>
<path d="M11.1337 4.12549C6.69544 3.19428 1.9895 4.7521 -1.60256 7.44131C-4.39159 9.53001 -6.78341 12.6631 -6.4812 16.0485C-6.24975 17.6497 -5.77503 19.2055 -5.07373 20.6611C-4.359 22.1208 -4.04024 23.7452 -4.14981 25.3693C-4.33394 27.0533 -5.58269 28.4212 -7.23242 28.7461C-5.08356 30.2159 -2.43129 30.7348 0.107121 30.1821C2.61466 29.6061 4.76518 27.9915 6.03056 25.7349C6.30936 24.9599 6.82674 24.2951 7.50711 23.8376C7.86194 23.6918 8.23838 23.6065 8.62099 23.5852C11.3276 23.3685 13.9189 22.3883 16.0987 20.7568C22.5575 15.4393 18.8186 5.76164 11.1337 4.12549Z" fill="#080C20"/>
<path fill-rule="evenodd" clip-rule="evenodd" d="M-7.66412 29.4858C-5.96242 30.651 -3.95333 31.2754 -1.8961 31.2786C-1.13662 31.2947 -0.377741 31.2247 0.366203 31.0698C3.11607 30.4464 5.47355 28.6746 6.85091 26.1961L7.01497 25.8828C7.17103 25.3846 7.47182 24.945 7.87844 24.6209C8.15598 24.5196 8.44706 24.4609 8.74192 24.4468C11.6307 24.2291 14.3954 23.1743 16.7032 21.4095C19.6238 19.077 20.9094 15.2308 19.9844 11.5926C18.9167 7.38771 15.5663 4.16276 11.3496 3.2813C7.04951 2.41101 2.02408 3.68163 -2.07743 6.76247C-5.66086 9.44298 -7.5605 12.8545 -7.3101 16.1268C-7.12461 17.6362 -6.69892 19.1055 -6.04942 20.4783L-5.81628 21.044C-5.17329 22.3652 -4.87606 23.8301 -4.95281 25.2997C-5.09872 26.5817 -6.03456 27.6298 -7.28419 27.9106C-7.63938 27.9539 -7.93129 28.2135 -8.01815 28.5633C-8.10183 28.9151 -7.96088 29.2824 -7.66412 29.4858ZM-0.0482645 29.3292C-1.78069 29.7128 -3.58801 29.555 -5.22912 28.8766C-4.17525 28.0543 -3.47634 26.8543 -3.27766 25.526C-3.14365 23.749 -3.48037 21.968 -4.25339 20.3652L-4.48653 19.7908C-5.0609 18.5907 -5.44548 17.3075 -5.62632 15.9876C-5.9199 12.2105 -2.54371 9.25151 -1.08444 8.15494C2.63715 5.37 7.13585 4.19511 10.9611 4.99578C14.5503 5.72744 17.4025 8.47354 18.292 12.0539C19.071 15.0432 18.008 18.2128 15.5893 20.1128C13.5214 21.6462 11.0618 22.552 8.50014 22.7236C8.04534 22.7579 7.59911 22.8667 7.17903 23.0457C6.40164 23.4966 5.79436 24.1943 5.45208 25.0299L5.30528 25.3171C4.16194 27.3555 2.21774 28.8126 -0.0482645 29.3292Z" fill="#093F68"/>
<path d="M22.2639 5.55278C18.8395 4.84369 15.2757 5.49536 12.3167 7.37169C9.38555 9.2674 7.12002 12.044 5.8406 15.3088C5.01397 17.2256 4.66421 19.3168 4.8217 21.4008C4.99887 23.4865 5.99703 25.414 7.59346 26.7531C8.06911 27.1876 8.67928 27.4428 9.32041 27.4755C9.75212 27.4407 10.1737 27.3256 10.5638 27.136C16.5134 24.581 21.5134 20.2023 24.8543 14.6212C26.8144 11.3228 26.6245 6.53621 22.2639 5.55278Z" fill="#080C20"/>
<path fill-rule="evenodd" clip-rule="evenodd" d="M7.05825 27.4928C7.68056 28.0306 8.46666 28.3377 9.28602 28.3631L9.31192 28.3979C9.85431 28.3653 10.3852 28.2264 10.8748 27.9889C16.9882 25.3595 22.1243 20.8558 25.5539 15.1173C26.9439 12.9803 27.2633 10.3114 26.4174 7.90254C25.706 6.24583 24.2174 5.05932 22.454 4.74337C18.8113 3.97782 15.016 4.66737 11.8678 6.66672C8.77726 8.65595 6.38736 11.5763 5.03772 15.0128C4.16024 17.0595 3.79266 19.2913 3.96701 21.5139C4.15855 23.8446 5.27267 25.9994 7.05825 27.4928ZM12.7745 8.11141C14.8151 6.83178 17.1667 6.14511 19.57 6.12714C20.4142 6.11938 21.2567 6.20401 22.0827 6.37952C23.2994 6.58288 24.3321 7.39133 24.8286 8.52915C25.4558 10.4189 25.1885 12.4942 24.1033 14.1599C20.8675 19.597 16.0071 23.8621 10.2186 26.344C9.93267 26.4918 9.62257 26.5862 9.30329 26.6225C8.8617 26.5818 8.44582 26.3952 8.12033 26.0917C6.70316 24.8873 5.82574 23.1593 5.68532 21.2963C5.53596 19.357 5.86524 17.4106 6.64378 15.6307C7.85222 12.537 9.99741 9.90593 12.7745 8.11141Z" fill="#093F68"/>
<path d="M28.8436 6.41434C32.8242 6.54488 36.4595 7.98087 38.6872 11.4098C41.2777 10.174 44.1876 12.1235 46.0268 14.2905C49.5153 18.4542 51.4811 23.698 51.5962 29.1464C51.7171 36.2567 48.5827 43.1668 43.9285 48.5104C41.4495 51.4575 38.3842 53.8472 34.9311 55.525C31.4383 57.2031 27.5006 57.6977 23.7059 56.9349C13.137 54.5764 6.69547 41.4784 5.4866 31.5484C3.82873 17.5802 14.9158 5.96179 28.8436 6.41434Z" fill="#080C20"/>
<path fill-rule="evenodd" clip-rule="evenodd" d="M23.5679 57.779C24.7357 58.042 25.9288 58.1733 27.1254 58.1707C29.9434 58.1537 32.7253 57.5306 35.2852 56.3431C38.862 54.6137 42.0344 52.1399 44.5935 49.0848C49.7916 43.1146 52.5979 36.0304 52.477 29.1377C52.3755 23.4844 50.3343 18.0411 46.7004 13.7335C44.7835 11.462 41.839 9.47777 39.0241 10.3481C36.7963 7.34555 33.3079 5.692 28.8869 5.54405C21.9258 5.27492 15.1963 8.08907 10.4689 13.2461C5.92088 18.2168 3.79822 24.9666 4.67501 31.6702C6.00477 42.575 13.0766 55.438 23.5679 57.779ZM11.7296 14.421C15.938 9.8274 21.8719 7.23352 28.0752 7.27593L28.8178 7.28463C31.6845 7.38037 35.5961 8.25066 37.9706 11.8885C38.2081 12.2481 38.6712 12.3777 39.0586 12.1931C41.1914 11.1661 43.7905 12.9851 45.3706 14.8562C48.72 18.8722 50.6114 23.9188 50.7328 29.1638C50.8451 35.6214 48.1942 42.2878 43.281 47.936C40.8814 50.7919 37.9131 53.1076 34.5685 54.733C31.2626 56.3266 27.5339 56.7998 23.9392 56.082C14.2251 53.9149 7.64537 41.7743 6.39333 31.444C5.57391 25.2523 7.52942 19.0142 11.7296 14.421Z" fill="#093F68"/>
<path d="M22.5463 58.6728L27.3831 59.6363C27.6217 59.6839 27.7769 59.9173 27.7298 60.1578L27.2493 62.6082C26.9367 64.2019 25.4015 65.2386 23.8202 64.9236C22.239 64.6086 21.2104 63.0612 21.523 61.4674L22.0035 59.0171C22.0506 58.7766 22.2823 58.6202 22.5209 58.6677L22.5463 58.6728Z" fill="#080C20"/>
<path fill-rule="evenodd" clip-rule="evenodd" d="M23.6888 65.7684C23.9332 65.8178 24.1821 65.8411 24.4314 65.838L24.466 65.8032C26.2663 65.7962 27.8123 64.5111 28.1616 62.731L28.6452 60.2855C28.7078 59.9441 28.6366 59.5916 28.4466 59.3021C28.2508 59.0007 27.9366 58.798 27.5831 58.7451L22.7217 57.7704C22.3831 57.7081 22.0336 57.7798 21.746 57.9705C21.4486 58.1694 21.248 58.4853 21.1934 58.8408L20.7098 61.295C20.3082 63.3592 21.6414 65.361 23.6888 65.7684ZM22.4022 61.6258L22.7994 59.598L26.8232 60.3899L26.426 62.4264C26.3258 62.9639 26.0144 63.4378 25.5626 63.7406C25.1084 64.0462 24.553 64.1588 24.0169 64.0539C23.4852 63.9492 23.0163 63.6362 22.7131 63.1836C22.4099 62.7259 22.2982 62.166 22.4022 61.6258Z" fill="#093F68"/>
<ellipse cx="41.6984" cy="48.7347" rx="4.92441" ry="4.37049" transform="rotate(-78.82 41.6984 48.7347)" fill="#080C20"/>
<path fill-rule="evenodd" clip-rule="evenodd" d="M40.6129 54.411C40.9229 54.4726 41.238 54.5047 41.554 54.5068C42.642 54.4905 43.6957 54.1212 44.5589 53.4537C45.7335 52.5436 46.5355 51.2305 46.8126 49.7637C47.4257 46.6306 45.621 43.6194 42.7888 43.0537C41.379 42.7808 39.9211 43.1363 38.7909 44.0284C36.387 45.9282 35.7259 49.3157 37.2367 51.9916C37.9577 53.2562 39.191 54.14 40.6129 54.411ZM41.8858 44.6989C41.8932 44.6988 41.9006 44.6987 41.9081 44.6986H41.8735C41.8776 44.6987 41.8817 44.6988 41.8858 44.6989ZM39.8875 45.4035C40.4616 44.9587 41.1622 44.7118 41.8858 44.6989C42.0972 44.7049 42.3073 44.734 42.5125 44.7856C44.4035 45.1598 45.6038 47.2485 45.172 49.4417C44.9716 50.4785 44.4038 51.4065 43.5746 52.0525C42.8398 52.6519 41.879 52.8914 40.9518 52.7065C40.0246 52.5217 39.2266 51.9314 38.7737 51.0952C37.7086 49.1796 38.1805 46.768 39.8875 45.4035Z" fill="#093F68"/>
<path d="M23.611 61.4865C14.2077 59.6067 8.06842 46.2302 9.90763 36.892L11.98 38.1974L13.1975 31.5745C13.1975 31.5745 36.9344 29.9732 36.5113 24.1422L46.0095 30.8261L42.7024 47.7097C40.8028 57.0393 33.0229 63.3576 23.611 61.4865Z" fill="#080C20"/>
<path fill-rule="evenodd" clip-rule="evenodd" d="M23.4727 62.3394C24.6102 62.5677 25.7669 62.6843 26.9266 62.6875C35.0174 62.6875 41.7093 56.9001 43.5313 47.8142L46.8384 30.9392C46.8995 30.6043 46.7611 30.2642 46.4844 30.0689L36.9861 23.3851C36.7125 23.1915 36.3526 23.1746 36.0622 23.3416C35.7558 23.5159 35.585 23.8602 35.6305 24.2119C35.6466 24.6318 35.4867 25.0392 35.1901 25.3345C32.2975 28.72 18.3437 30.3561 13.1628 30.7042C12.7668 30.7299 12.4391 31.0243 12.3684 31.4179L11.3841 36.7789L10.3911 36.1523C10.1498 35.9997 9.84931 35.9769 9.58805 36.0914C9.32738 36.2069 9.14002 36.4446 9.08724 36.7267C7.19622 46.3695 13.5859 60.3638 23.4727 62.3394ZM41.7871 47.5705C39.9651 56.8391 32.4183 62.3655 23.7836 60.6249L23.8095 60.6423C16.6254 59.2325 9.28584 48.641 10.581 38.3454L11.5481 38.9546C11.7909 39.1044 12.0913 39.1239 12.3512 39.0068C12.6118 38.8913 12.7992 38.6536 12.852 38.3715L13.9486 32.41C17.722 32.1228 32.8933 30.7042 36.5026 26.4833C36.7251 26.2181 36.9137 25.9257 37.0638 25.613L45.0078 31.2177L41.7871 47.5705Z" fill="#093F68"/>
<ellipse cx="23.1101" cy="41.6223" rx="1.59217" ry="1.58063" transform="rotate(-78.82 23.1101 41.6223)" fill="#093F68"/>
<ellipse cx="38.0484" cy="44.5941" rx="1.58016" ry="1.59264" fill="#093F68"/>
<path d="M31.6241 48.0666C30.6926 48.0244 29.7741 47.8304 28.9041 47.4922C28.6157 47.3802 28.4084 47.1217 28.3604 46.814C28.3123 46.5062 28.4308 46.1961 28.6712 46.0003C28.9116 45.8045 29.2374 45.7528 29.5258 45.8647C30.1201 46.0929 30.7412 46.2421 31.3737 46.3086C31.3163 45.126 31.1073 43.9559 30.752 42.8274C30.6641 42.5289 30.7408 42.2058 30.9533 41.9798C31.1658 41.7538 31.4818 41.6593 31.7823 41.7318C32.0827 41.8043 32.3219 42.0328 32.4099 42.3313C32.9452 44.1677 33.4374 46.561 32.7639 47.5531C32.553 47.8666 32.2068 48.0604 31.8313 48.0753L31.6241 48.0666Z" fill="#093F68"/>
<path d="M26.7713 38.7719C26.6479 38.7847 26.5235 38.7847 26.4 38.7719L19.0259 37.1705C18.1106 36.9531 17.5362 36.0375 17.7337 35.1108C17.9312 34.1841 18.8281 33.587 19.7513 33.7677L27.134 35.369C28.0878 35.47 28.7798 36.3311 28.6796 37.2924C28.5795 38.2537 27.7251 38.9511 26.7713 38.8502V38.7719Z" fill="#093F68"/>
<path d="M40.8202 40.5908H40.6389L33.1353 39.8075C32.1815 39.7114 31.4856 38.8541 31.581 37.8928C31.6764 36.9315 32.5269 36.2302 33.4807 36.3263L40.9929 37.0922C41.4487 37.1404 41.8668 37.3693 42.1551 37.7284C42.4434 38.0875 42.5782 38.5474 42.5299 39.0068C42.4498 39.8998 41.7098 40.5854 40.8202 40.5908Z" fill="#093F68"/>
<path d="M13.0593 38.7545C13.0593 38.7545 9.52765 35.0818 6.60047 38.328C3.67329 41.5742 4.5713 48.2581 11.7036 47.7794" fill="#080C20"/>
<path d="M11.0042 48.6758C8.06837 48.6758 5.82333 47.4487 4.76126 45.2468C3.6444 42.7282 4.10837 39.7824 5.94422 37.7362C6.76545 36.7438 7.96972 36.1544 9.25133 36.1175C11.6086 36.0652 13.5687 38.0669 13.6637 38.1539C13.9066 38.3703 14.0088 38.7055 13.9284 39.022C13.848 39.3385 13.5985 39.583 13.2823 39.655C12.9662 39.727 12.6366 39.6145 12.4289 39.3637C11.5826 38.5097 10.4689 37.9777 9.27724 37.858C8.46935 37.9003 7.71948 38.2941 7.22216 38.9372C5.86108 40.4568 5.5066 42.6379 6.31551 44.5158C7.17899 46.2564 9.02683 47.1267 11.6259 46.9352C12.1028 46.904 12.5145 47.2683 12.5455 47.7489C12.5765 48.2296 12.215 48.6445 11.7381 48.6758H11.0042Z" fill="#093F68"/>
<path d="M27.0994 55.9253C26.8481 55.925 26.5972 55.9075 26.3482 55.8731C23.6542 55.4728 21.5041 52.9924 19.9585 48.5017C19.8567 48.2079 19.9181 47.8817 20.1197 47.6459C20.3213 47.4101 20.6323 47.3006 20.9357 47.3587C21.2391 47.4167 21.4887 47.6335 21.5905 47.9273C22.9116 51.7566 24.5867 53.854 26.5986 54.1499C30.2079 54.6808 34.0245 49.4068 34.059 49.3546C34.1925 49.1659 34.3952 49.0386 34.6222 49.001C34.8491 48.9635 35.0815 49.0187 35.2679 49.1545C35.6526 49.4343 35.7412 49.9744 35.4665 50.3642C35.2938 50.6078 31.4514 55.9253 27.0994 55.9253Z" fill="#093F68"/>
<path d="M28.9214 102.025L32.6085 89.4838L30.4498 73.5139L16.0729 68.4662L-3.01854 81.9906L-4.14106 95.9675C-4.14106 95.9675 -9.41689 105.158 -6.73148 111.729C-4.04608 118.299 40.3797 130.875 40.3797 130.875L50.0852 114.174L28.9214 102.025Z" fill="#080C20"/>
<path fill-rule="evenodd" clip-rule="evenodd" d="M40.181 131.737C40.2582 131.749 40.3369 131.749 40.4141 131.737C40.7391 131.773 41.0566 131.621 41.2344 131.345L50.9313 114.644C51.0461 114.444 51.0772 114.206 51.0176 113.983C50.9581 113.758 50.812 113.567 50.6118 113.452L30.0093 101.642L33.4632 89.771C33.4888 89.6506 33.4888 89.526 33.4632 89.4055L31.3045 73.4356C31.2611 73.1114 31.0409 72.839 30.7346 72.7307L16.3577 67.6743C16.0957 67.5843 15.8067 67.6263 15.5806 67.7874L-3.51086 81.3118C-3.72085 81.4613 -3.8538 81.6974 -3.87352 81.9558L-4.98741 95.7413C-5.77317 97.1076 -10.1683 105.636 -7.50012 112.103C-4.71973 118.865 35.596 130.44 40.181 131.737ZM-3.27772 96.0197L-2.18974 82.4519L16.2109 69.3975L29.6639 74.1667L31.7276 89.4142L28.0924 101.764C27.9792 102.15 28.1434 102.564 28.4895 102.765L48.928 114.47L40.0083 129.831C8.19787 120.78 -4.88379 113.843 -5.90269 111.38C-8.42404 105.288 -3.44178 96.4723 -3.38998 96.3853C-3.32612 96.2733 -3.28777 96.1485 -3.27772 96.0197Z" fill="#093F68"/>
<path d="M65.2909 86.0027L86.8087 99.6837V105.915L62.2773 88.6223L65.2909 86.0027Z" fill="#093F68"/>
<path fill-rule="evenodd" clip-rule="evenodd" d="M86.3166 106.663C86.4609 106.765 86.6327 106.82 86.8087 106.82C86.9468 106.821 87.083 106.788 87.2059 106.724C87.493 106.574 87.6729 106.276 87.6722 105.95V99.7272C87.6728 99.4265 87.5194 99.1468 87.2664 98.9875L65.7572 85.3151C65.4369 85.1074 65.0195 85.1357 64.7297 85.3848L61.7161 87.9956C61.5133 88.171 61.4024 88.4312 61.4159 88.7003C61.4294 88.9693 61.5658 89.2169 61.7852 89.3707L86.3166 106.663ZM85.9453 104.209L63.6849 88.5439L65.3686 87.0731L85.9453 100.128V104.209Z" fill="#093F68"/>
<path d="M95.0292 158.019H83.9854V73.9404L95.0292 70.32V158.019Z" fill="#093F68"/>
<path fill-rule="evenodd" clip-rule="evenodd" d="M83.9851 158.89H95.029C95.5059 158.89 95.8925 158.5 95.8925 158.019V70.32C95.9066 70.0337 95.78 69.7588 95.554 69.585C95.328 69.4111 95.0315 69.3605 94.7613 69.4497L83.7174 73.0701C83.3467 73.1914 83.1026 73.548 83.1216 73.9404V158.019C83.1216 158.5 83.5082 158.89 83.9851 158.89ZM94.1655 157.149H84.8486V74.567L94.1655 71.5123V157.149Z" fill="#093F68"/>
<rect x="72.2246" y="157.132" width="34.5649" height="7.14511" rx="3.23" fill="#093F68"/>
<path fill-rule="evenodd" clip-rule="evenodd" d="M75.0138 165.13H103.992C104.966 165.13 105.9 164.739 106.587 164.043C107.274 163.347 107.658 162.404 107.653 161.422V159.908C107.648 157.873 106.011 156.227 103.992 156.227H75.0138C72.9986 156.231 71.3661 157.877 71.3613 159.908V161.44C71.3613 163.474 72.9952 165.125 75.0138 165.13ZM73.0883 159.925C73.0883 158.854 73.9504 157.985 75.0138 157.985L103.992 157.967C104.504 157.965 104.996 158.168 105.359 158.533C105.722 158.897 105.926 159.392 105.926 159.908V161.44C105.926 161.957 105.722 162.453 105.36 162.818C104.997 163.184 104.505 163.389 103.992 163.389H75.0138C73.949 163.384 73.0883 162.513 73.0883 161.44V159.925Z" fill="#093F68"/>
<ellipse cx="89.5029" cy="80.0498" rx="2.90991" ry="2.93289" fill="#080C20"/>
<path fill-rule="evenodd" clip-rule="evenodd" d="M85.7207 80.0499C85.7207 82.1551 87.414 83.8617 89.5027 83.8617C91.5915 83.8617 93.2847 82.1551 93.2847 80.0499C93.2847 77.9446 91.5915 76.238 89.5027 76.238C87.414 76.238 85.7207 77.9446 85.7207 80.0499ZM87.6033 79.2679C87.9208 78.4929 88.6707 77.9873 89.5027 77.9873C90.6343 77.9873 91.553 78.9093 91.5578 80.0499C91.5613 80.8884 91.0628 81.6463 90.2952 81.9697C89.5275 82.293 88.6422 82.118 88.0527 81.5263C87.4631 80.9346 87.2857 80.043 87.6033 79.2679Z" fill="#093F68"/>
<ellipse cx="89.5029" cy="156.227" rx="2.90991" ry="2.93289" fill="#080C20"/>
<path fill-rule="evenodd" clip-rule="evenodd" d="M85.738 156.221C85.7349 158.32 87.4199 160.025 89.5028 160.03C90.5051 160.032 91.4671 159.632 92.1766 158.919C92.8861 158.205 93.2848 157.237 93.2848 156.227C93.2848 154.127 91.5972 152.425 89.5143 152.423C87.4314 152.422 85.7412 154.122 85.738 156.221ZM87.465 156.232C87.4618 155.094 88.3737 154.169 89.5028 154.164C90.6344 154.164 91.5531 155.086 91.5579 156.227C91.5579 157.365 90.6434 158.288 89.5143 158.289C88.3852 158.291 87.4682 157.37 87.465 156.232Z" fill="#093F68"/>
<path d="M37.0572 94.5192L123.954 49.2758L126.942 55.1059L40.0453 100.349L37.0572 94.5192Z" fill="#080C20"/>
<path fill-rule="evenodd" clip-rule="evenodd" d="M39.2831 100.737C39.4318 101.026 39.7283 101.207 40.0516 101.207C40.1954 101.219 40.34 101.198 40.4747 101.146L127.366 55.8905C127.568 55.7849 127.72 55.6035 127.789 55.3858C127.862 55.1644 127.843 54.923 127.738 54.7156L124.741 48.8847C124.523 48.4612 124.006 48.2943 123.584 48.5104L36.6667 93.7309C36.4621 93.8347 36.3068 94.0163 36.235 94.2356C36.1652 94.4581 36.187 94.6996 36.2955 94.9058L39.2831 100.737ZM40.4229 99.1615L38.221 94.8797L123.584 50.4251L125.777 54.7069L40.4229 99.1615Z" fill="#093F68"/>
<path d="M41.459 148.96V162.649C41.459 162.649 62.0874 166.635 60.4555 163.52C58.8235 160.404 52.287 158.646 52.287 158.646L52.831 151.231L41.459 148.96Z" fill="#080C20"/>
<path fill-rule="evenodd" clip-rule="evenodd" d="M41.2949 163.502C49.3166 165.051 54.1434 165.547 57.0361 165.547C59.8337 165.547 60.8267 165.13 61.1376 164.651C61.4546 164.203 61.4783 163.609 61.198 163.137C59.7129 160.352 54.9724 158.611 53.1763 158.046L53.6685 151.327C53.7033 150.887 53.4066 150.491 52.9777 150.404L41.6317 148.107C41.379 148.054 41.1161 148.118 40.915 148.281C40.7121 148.447 40.5946 148.696 40.5955 148.96V162.632C40.5879 163.055 40.8829 163.422 41.2949 163.502ZM59.5574 163.668C57.701 164.277 49.5929 163.285 42.357 161.927V150.021L51.9243 151.962L51.4408 158.611C51.426 159.013 51.6866 159.373 52.0711 159.482C53.7203 159.934 58.1327 161.527 59.5574 163.668Z" fill="#093F68"/>
<path d="M48.7814 88.396L47.0803 84.2621L113.395 50.1466L115.485 53.6626L48.7814 88.396Z" fill="#080C20"/>
<path fill-rule="evenodd" clip-rule="evenodd" d="M48.4791 89.214C48.576 89.2495 48.6783 89.2671 48.7813 89.2662C48.9216 89.2588 49.0579 89.217 49.1785 89.1444L115.882 54.411C116.094 54.2992 116.25 54.1038 116.314 53.8714C116.378 53.6427 116.347 53.3975 116.227 53.1926L114.138 49.7114C113.905 49.3189 113.411 49.1744 113.007 49.3807L46.6486 83.4875C46.252 83.6965 46.0796 84.1763 46.2514 84.5928L47.9783 88.7354C48.072 88.9581 48.2534 89.1316 48.4791 89.214ZM49.2217 87.1949L48.1855 84.6711L113.067 51.2953L114.267 53.3144L49.2217 87.1949Z" fill="#093F68"/>
<path d="M54.0571 51.6348L51.5962 53.3492L63.9612 71.3556L66.4566 69.615L54.0571 51.6348Z" fill="#080C20"/>
<path fill-rule="evenodd" clip-rule="evenodd" d="M63.2964 71.8517C63.4575 72.0857 63.7219 72.2254 64.0045 72.2259C64.1824 72.2204 64.3543 72.1596 64.4967 72.0518L66.9921 70.3113C67.1749 70.1728 67.3009 69.9715 67.3461 69.7456C67.388 69.5181 67.3383 69.2833 67.208 69.0929L54.8085 51.1126C54.5363 50.7191 53.9994 50.6217 53.6082 50.895L51.1473 52.6356C50.7569 52.91 50.6603 53.451 50.9315 53.8453L63.2964 71.8517ZM64.1685 70.1459L52.7793 53.5668L53.8241 52.8619L65.2306 69.3975L64.1685 70.1459Z" fill="#093F68"/>
<path d="M28.9213 77.8219L49.8347 66.5081C49.8347 66.5081 51.7257 62.8094 52.9605 61.8172C54.3852 60.6598 55.4128 59.4152 55.8618 59.9722C56.2427 60.417 56.5357 60.9309 56.7252 61.4865C56.8202 61.7911 56.7684 62.3046 57.0879 62.47C57.8046 62.8529 59.9546 61.1558 60.5418 60.7903C60.7749 60.6423 61.034 60.4335 61.0167 60.155C60.9995 59.8765 60.395 59.5719 60.3346 59.1628C60.9228 58.8166 61.6299 58.7405 62.2774 58.954C62.7415 59.1448 63.1076 59.5191 63.2904 59.9895C63.4732 60.4599 63.4566 60.9853 63.2445 61.443C62.8646 62.3133 61.8802 62.9573 61.6212 63.7928C61.5408 64.1201 61.503 64.4565 61.5089 64.7936C61.5159 66.0013 61.2992 67.1996 60.8699 68.327C59.6524 71.199 55.7927 71.9039 53.0986 72.8352C53.0986 72.8352 30.4756 90.7197 27.5657 90.7197" fill="#080C20"/>
<path d="M27.5917 91.5638C27.1149 91.5638 26.7283 91.1742 26.7283 90.6935C26.7283 90.2129 27.1149 89.8233 27.5917 89.8233C29.3187 89.7275 41.675 80.7548 52.6325 72.1215C52.7067 72.0599 52.7917 72.0126 52.8829 71.9822C53.332 71.8256 53.8155 71.6776 54.3163 71.521C56.6304 70.7986 59.2468 69.9893 60.1102 67.9615C60.5045 66.9383 60.698 65.8476 60.6801 64.7501C60.6759 64.3301 60.7282 63.9114 60.8356 63.5056C61.0595 62.9224 61.4005 62.392 61.8372 61.9478C62.0905 61.688 62.3083 61.3953 62.4848 61.0775C62.606 60.8002 62.606 60.4844 62.4848 60.2072C62.4013 59.9938 62.2318 59.8261 62.0185 59.7459C61.9429 59.7203 61.8647 59.7028 61.7854 59.6937C61.8391 59.8304 61.8739 59.9739 61.889 60.1202C61.896 60.7233 61.5607 61.2775 61.0255 61.5474L60.6629 61.7998C59.0913 62.9138 57.7011 63.7928 56.7168 63.2619C56.2657 62.9765 55.9843 62.4843 55.9656 61.9478C55.9697 61.8869 55.9697 61.8259 55.9656 61.765C55.8576 61.4515 55.7002 61.1576 55.4993 60.8947C55.2575 61.0775 54.9035 61.3908 54.6358 61.6432C54.3681 61.8955 53.9537 62.2437 53.5737 62.5135C52.7793 63.1488 51.3805 65.5595 50.6811 66.9258C50.5997 67.0819 50.4733 67.2094 50.3184 67.2914L29.405 78.6052C28.9854 78.8455 28.4519 78.6974 28.2134 78.2745C27.975 77.8515 28.1219 77.3138 28.5416 77.0735L49.265 65.9076C49.7485 65.0373 51.3114 62.1392 52.4944 61.1819C52.857 60.8947 53.1852 60.5988 53.4874 60.3116C54.3509 59.5109 55.033 58.9366 55.767 58.9975C56.1039 59.0165 56.4173 59.1776 56.6304 59.4413C57.0843 59.9717 57.4305 60.5867 57.6493 61.2515C57.6862 61.3678 57.7122 61.4872 57.727 61.6084C58.4358 61.2631 59.1096 60.8492 59.7389 60.3725L60.0325 60.1724C59.7859 59.9422 59.6219 59.6362 59.5662 59.3021C59.5175 58.9543 59.681 58.611 59.9807 58.4318C60.7858 57.9247 61.7725 57.8035 62.6748 58.1011C63.345 58.3403 63.8821 58.8564 64.1513 59.5196C64.4577 60.2363 64.4577 61.0484 64.1513 61.765C63.9093 62.2466 63.598 62.6894 63.2274 63.0791C62.9575 63.3528 62.7356 63.6706 62.5711 64.0191C62.5152 64.2467 62.4891 64.4808 62.4934 64.7153C62.5016 66.0538 62.2615 67.3821 61.7854 68.6316C60.6111 71.3991 57.468 72.3826 54.8776 73.1745L53.6342 73.5749C48.0475 77.9263 30.5448 91.5638 27.5917 91.5638Z" fill="#093F68"/>
<path d="M1.83423 74.4974C20.0708 100.972 32.6344 89.4838 32.6344 89.4838C32.4099 88.0826 31.8573 85.1324 31.581 83.7399C31.1406 81.4249 30.6484 79.1099 30.303 76.7775L28.9474 77.5173C28.9474 77.5173 20.0104 70.816 13.2666 64.6979" fill="#080C20"/>
<path d="M25.148 92.8345C24.571 92.8364 23.9944 92.8045 23.4211 92.7387C16.1161 91.8684 8.58657 85.9243 1.05706 74.9935C0.881219 74.7369 0.854513 74.4054 0.987 74.1236C1.11949 73.8419 1.39104 73.6528 1.69937 73.6276C2.00769 73.6023 2.30595 73.7448 2.48179 74.0013C9.5882 84.323 16.8846 90.2062 23.5679 90.9981C26.3936 91.4097 29.2699 90.7424 31.6327 89.127C31.3823 87.6649 30.9333 85.2455 30.6656 83.9053L30.3807 82.4432C30.1044 81.0333 29.8108 79.5886 29.5777 78.0917L29.2841 78.2484C28.9888 78.4077 28.6287 78.3806 28.3602 78.1787C28.2738 78.1091 19.3109 71.3904 12.619 65.3071C12.2644 64.9872 12.2335 64.4383 12.5499 64.08C12.7038 63.9069 12.9201 63.8031 13.1504 63.7916C13.3807 63.7802 13.606 63.8621 13.7761 64.0191C19.57 69.2408 27.0736 75.0283 28.956 76.4555L29.8194 75.9769C30.0677 75.8436 30.3649 75.8405 30.6158 75.9687C30.8668 76.0969 31.04 76.3403 31.0801 76.6209C31.3478 78.4311 31.7104 80.2761 32.0645 82.0602L32.3581 83.5223C32.6516 85.054 33.2215 87.9434 33.4115 89.3011C33.4592 89.591 33.3585 89.8855 33.1438 90.0843C30.8773 91.9109 28.0496 92.8835 25.148 92.8345Z" fill="#093F68"/>
<path fill-rule="evenodd" clip-rule="evenodd" d="M67.0352 74.4713C67.1781 74.5681 67.3465 74.6196 67.5187 74.6192C67.6987 74.618 67.8738 74.5602 68.0195 74.4539C68.3133 74.2445 68.4475 73.8734 68.3563 73.5226L67.2856 69.3975C67.2138 69.1244 67.015 68.9035 66.7524 68.8049C66.4898 68.7063 66.196 68.7423 65.9645 68.9014L63.469 70.642C63.2343 70.806 63.0953 71.0765 63.0977 71.3643C63.1021 71.6523 63.2476 71.9195 63.4863 72.078L67.0352 74.4713ZM66.1112 71.7559L65.4982 71.3382L65.9299 71.0423L66.1112 71.7559Z" fill="#093F68"/>
<path d="M118.706 153.72C118.706 153.72 113.084 142.163 113.87 134.356C117.046 136.119 119.441 139.03 120.571 142.502C123.895 151.806 123.161 153.729 123.161 153.729L118.706 153.72Z" fill="#080C20"/>
<path fill-rule="evenodd" clip-rule="evenodd" d="M118.706 154.599H123.127C123.478 154.601 123.796 154.388 123.93 154.06C124.076 153.685 124.655 151.37 121.382 142.215C119.103 135.862 114.423 133.66 114.224 133.573C113.97 133.459 113.678 133.475 113.438 133.616C113.197 133.754 113.037 134 113.007 134.278C112.212 142.241 117.695 153.633 117.937 154.112C118.081 154.408 118.378 154.597 118.706 154.599ZM122.349 152.859H119.258L119.267 152.85C118.3 150.752 114.63 142.319 114.656 135.836C117.021 137.578 118.802 140.007 119.759 142.798C121.987 149.021 122.349 151.806 122.349 152.859Z" fill="#093F68"/>
<path d="M121.382 153.163C121.382 153.163 117.16 136.689 123.23 125.653C123.23 125.653 126.727 129.691 127.548 139.439C127.997 144.09 127.126 148.774 125.035 152.946L121.382 153.163Z" fill="#080C20"/>
<path fill-rule="evenodd" clip-rule="evenodd" d="M120.519 153.381C120.62 153.775 120.979 154.046 121.382 154.033H121.417L125.069 153.781C125.353 153.761 125.608 153.601 125.752 153.355C127.946 149.045 128.863 144.19 128.394 139.369C127.548 129.439 124.007 125.262 123.852 125.088C123.667 124.873 123.39 124.763 123.11 124.792C122.83 124.822 122.581 124.987 122.445 125.235C116.279 136.436 120.346 152.693 120.519 153.381ZM122.056 152.241C121.391 149.125 119.077 136.619 123.334 127.368C124.37 129.134 126.175 133.016 126.701 139.517C127.08 143.828 126.32 148.164 124.5 152.084L122.056 152.241Z" fill="#093F68"/>
<path d="M123.204 152.641C123.204 152.641 124.517 141.649 133.333 134.469C133.333 134.469 135.923 142.659 128.644 153.616L123.204 152.641Z" fill="#080C20"/>
<path fill-rule="evenodd" clip-rule="evenodd" d="M128.498 154.486C128.546 154.494 128.596 154.494 128.644 154.486C128.928 154.49 129.196 154.354 129.361 154.12C136.796 142.929 134.266 134.574 134.153 134.226C134.068 133.951 133.853 133.737 133.581 133.654C133.308 133.57 133.011 133.628 132.789 133.808C123.8 141.127 122.401 152.093 122.35 152.563C122.297 153.02 122.607 153.44 123.058 153.52L128.498 154.486ZM128.238 152.658L124.197 151.936C124.672 149.464 126.572 141.797 132.78 136.123C133.126 138.734 133.203 144.948 128.238 152.658Z" fill="#093F68"/>
<path d="M129.249 164.999H118.144L116.504 151.379H130.889L129.249 164.999Z" fill="#080C20"/>
<path fill-rule="evenodd" clip-rule="evenodd" d="M118.144 165.869H129.249C129.676 165.87 130.039 165.556 130.103 165.13L131.735 151.484C131.765 151.238 131.69 150.991 131.528 150.805C131.364 150.617 131.129 150.509 130.881 150.509H116.495C116.247 150.509 116.011 150.617 115.847 150.805C115.686 150.991 115.61 151.238 115.64 151.484L117.281 165.104C117.333 165.543 117.705 165.873 118.144 165.869ZM128.454 164.129H118.887L117.453 152.249H129.888L128.454 164.129Z" fill="#093F68"/>
<path d="M136.821 165.869H-19.1741C-19.651 165.869 -20.0376 165.48 -20.0376 164.999C-20.0376 164.519 -19.651 164.129 -19.1741 164.129H136.821C137.298 164.129 137.685 164.519 137.685 164.999C137.685 165.48 137.298 165.869 136.821 165.869Z" fill="#093F68"/>
<path d="M71.1179 235.198C70.6617 235.198 70.2919 234.828 70.2919 234.371V229.075C70.0002 210.194 54.6354 195.041 35.7821 195.041C16.9288 195.041 1.56396 210.194 1.27229 229.075V234.371C1.27229 234.828 0.902439 235.198 0.446204 235.198C-0.0100311 235.198 -0.379883 234.828 -0.379883 234.371V229.075C-0.0812377 209.285 16.0212 193.398 35.7821 193.398C55.5429 193.398 71.6454 209.285 71.944 229.075V234.371C71.944 234.59 71.857 234.8 71.7021 234.956C71.5471 235.111 71.337 235.198 71.1179 235.198Z" fill="#093F68"/>
<path d="M68.656 344.83C68.656 347.982 74.2486 347.966 81.1464 347.966C88.0443 347.966 93.6286 347.966 93.6286 344.83C93.6286 341.694 88.036 337.383 81.1464 337.383C74.2569 337.383 68.656 341.678 68.656 344.83Z" fill="#080C20"/>
<path fill-rule="evenodd" clip-rule="evenodd" d="M81.0144 348.793H81.4027C84.3249 348.887 87.2499 348.751 90.1509 348.388C91.2166 348.206 94.4549 347.635 94.4549 344.83C94.4549 341.115 88.317 336.556 81.1466 336.556C73.9762 336.556 67.8301 341.107 67.8301 344.83C67.8301 347.635 71.0683 348.206 72.134 348.388C75.0794 348.751 78.0483 348.886 81.0144 348.793ZM81.3944 347.138H81.0144C78.1425 347.224 75.2681 347.097 72.4149 346.758C69.4823 346.245 69.4823 345.252 69.4823 344.83C69.4823 342.224 74.7114 338.211 81.1466 338.211C87.5818 338.211 92.8027 342.215 92.8027 344.83C92.8027 345.252 92.8027 346.245 89.8701 346.758C87.0587 347.102 84.2252 347.229 81.3944 347.138Z" fill="#093F68"/>
<path d="M67.9705 334.247C67.9705 334.247 72.1587 335.646 73.0839 337.35C74.0092 339.055 74.7939 346.203 77.1152 345.583C79.4365 344.962 77.4292 337.822 79.2879 337.971C81.1465 338.12 93.9426 344.342 93.6287 341.082C93.3148 337.822 87.5074 332.692 82.5426 330.21C77.5779 327.727 69.1187 326.635 69.1187 326.635L67.9705 334.247Z" fill="#080C20"/>
<path fill-rule="evenodd" clip-rule="evenodd" d="M75.8762 346.187C76.1641 346.357 76.4918 346.449 76.8262 346.452C77.0045 346.453 77.1823 346.431 77.3549 346.385C79.2301 345.897 79.2301 343.399 79.2301 341.189C79.2018 340.397 79.2571 339.604 79.3953 338.823C79.9379 338.942 81.2427 339.436 82.5037 339.914C82.6443 339.967 82.7843 340.02 82.9227 340.072C88.4079 342.174 92.4062 343.572 93.8849 342.439C94.3244 342.099 94.5483 341.55 94.4714 340.999C94.0666 337.061 87.4992 331.773 82.9062 329.465C77.8753 326.95 69.5731 325.816 69.2179 325.816C68.775 325.762 68.369 326.069 68.301 326.511L67.1444 334.123C67.0833 334.521 67.317 334.905 67.6979 335.033C69.2014 335.538 71.787 336.713 72.3488 337.747C72.6848 338.566 72.9474 339.414 73.1336 340.279C73.9183 343.258 74.571 345.426 75.8762 346.187ZM73.8357 336.961C72.9601 335.406 70.1927 334.198 68.8792 333.701L69.8127 327.537C72.0431 327.876 78.2966 328.96 82.204 330.913C87.3836 333.511 92.5136 338.426 92.8275 341.123C91.7141 341.623 86.0895 339.482 83.5766 338.526L83.5092 338.5C82.183 337.9 80.799 337.437 79.3788 337.118C78.9951 337.074 78.6113 337.201 78.3297 337.466C77.5779 338.128 77.5779 339.493 77.5779 341.148C77.5697 342.348 77.5449 344.59 76.9253 344.755C76.8687 344.786 76.8002 344.786 76.7436 344.755C75.9257 344.284 75.1988 341.512 74.7692 339.857C74.5552 338.863 74.2425 337.893 73.8357 336.961Z" fill="#093F68"/>
<path d="M41.1473 233.245C29.326 231.789 14.1838 234.842 5.53469 243.406C4.14948 244.601 3.11084 246.147 2.52773 247.882C1.04903 253.591 2.39556 259.168 -2.63531 263.462C-3.91575 264.563 -5.38618 265.448 -6.55923 266.673C-10.3592 270.644 -9.57444 278.025 -5.01444 281.103C-7.58357 283.585 -7.9801 287.656 -7.19531 291.147C-5.7827 297.469 -1.08227 302.731 4.5186 305.933C10.1195 309.135 16.5712 310.633 22.9816 311.494C32.3082 312.743 41.9073 312.801 51.0025 310.401C60.0977 308.002 68.6973 302.996 74.3395 295.45C76.2585 293.095 77.5337 290.281 78.0403 287.283C78.6186 282.642 76.3882 278.182 74.2486 274.045C77.3877 270.346 78.156 265.018 77.0408 260.302C75.9256 255.585 73.1086 251.407 69.8043 247.89C62.2418 239.821 52.1088 234.642 41.1473 233.245Z" fill="#080C20"/>
<path fill-rule="evenodd" clip-rule="evenodd" d="M22.866 312.346C26.9105 312.89 30.9865 313.166 35.0673 313.173C40.4989 313.258 45.9187 312.641 51.1925 311.336C61.1304 308.713 69.5812 303.294 74.9756 296.079C77.2391 293.059 78.503 290.254 78.8417 287.523C79.4365 282.667 77.1647 278.033 75.2069 274.244C78.0651 270.545 79.0482 265.349 77.8173 260.178C76.793 255.867 74.2899 251.556 70.3825 247.369C62.6712 239.181 52.3675 233.918 41.2217 232.476C29.7969 231.077 14.1425 233.775 4.92341 242.876C3.43051 244.174 2.31702 245.852 1.70167 247.733C1.30089 249.446 1.02481 251.185 0.875584 252.938C0.868529 253 0.861504 253.063 0.854493 253.126C0.434632 256.869 0.0695782 260.124 -3.1805 262.867C-3.65963 263.272 -4.15529 263.644 -4.67572 264.033C-5.558 264.664 -6.38688 265.367 -7.15398 266.135C-9.18329 268.355 -10.1323 271.358 -9.74789 274.343C-9.51027 277.013 -8.25252 279.488 -6.23702 281.252C-8.22789 283.709 -8.88876 287.408 -8.00485 291.363C-6.63355 297.436 -2.2305 303.021 4.10558 306.686C9.00428 309.516 14.7869 311.262 22.866 312.346ZM6.11298 243.993C11.6147 238.549 22.2795 233.692 34.9599 233.692C36.9902 233.703 39.0179 233.838 41.0317 234.098C51.7855 235.479 61.7317 240.542 69.1847 248.428C72.9186 252.408 75.2647 256.462 76.223 260.492C77.3547 265.283 76.3551 270.272 73.6043 273.507C73.3851 273.763 73.3426 274.126 73.4969 274.426C75.8347 278.943 77.7264 283.006 77.206 287.217C76.9086 289.658 75.7439 292.198 73.6621 294.987C68.4825 301.904 60.3621 307.15 50.7795 309.632C42.6838 311.767 33.6217 312.122 23.0725 310.708C15.1999 309.648 9.59906 307.969 4.89863 305.255C-1.03268 301.821 -5.16311 296.625 -6.42702 290.999C-7.26963 287.209 -6.54268 283.75 -4.47746 281.732C-4.29781 281.557 -4.20669 281.311 -4.22963 281.061C-4.25045 280.814 -4.38082 280.59 -4.58485 280.449C-6.57999 278.934 -7.86264 276.662 -8.13003 274.168C-8.39742 271.675 -7.62585 269.182 -5.99746 267.277C-5.28674 266.58 -4.52155 265.94 -3.7092 265.365C-3.54413 265.236 -3.37826 265.109 -3.21259 264.983C-2.84763 264.704 -2.48364 264.426 -2.13137 264.124C1.6265 260.956 2.06232 257.047 2.48594 253.248C2.49162 253.197 2.49729 253.146 2.50298 253.095C2.65999 251.422 2.93606 249.763 3.32906 248.13C3.8717 246.527 4.83294 245.099 6.11298 243.993Z" fill="#093F68"/>
<path d="M35.4061 200.654H36.703C53.3602 200.654 66.8635 214.178 66.8635 230.862V239.79H5.25391V230.862C5.25391 214.178 18.7572 200.654 35.4143 200.654H35.4061Z" fill="#080C20"/>
<path fill-rule="evenodd" clip-rule="evenodd" d="M5.25382 240.626H66.913C67.3692 240.626 67.739 240.255 67.739 239.798V230.862C67.7163 213.715 53.8313 199.826 36.7112 199.826H35.406C18.3034 199.849 4.44594 213.732 4.42773 230.862V239.798C4.42773 240.255 4.79759 240.626 5.25382 240.626ZM66.0869 238.971H6.12121V230.862C6.13487 214.644 19.2553 201.499 35.4473 201.481H36.7525C52.9459 201.499 66.0687 214.643 66.0869 230.862V238.971Z" fill="#093F68"/>
<path d="M41.5274 286.142C41.0712 286.142 40.7014 285.771 40.7014 285.314V279.522H30.9205V285.314C30.9205 285.771 30.5506 286.142 30.0944 286.142C29.6382 286.142 29.2683 285.771 29.2683 285.314V278.695C29.2683 278.238 29.6382 277.868 30.0944 277.868H41.5274C41.9837 277.868 42.3535 278.238 42.3535 278.695V285.314C42.3535 285.771 41.9837 286.142 41.5274 286.142Z" fill="#093F68"/>
<path d="M35.7862 280.226C18.9175 280.226 5.22095 270.173 5.22095 251.639V238.665C23.2214 242.049 25.964 223.333 25.964 223.333C42.2957 251.779 66.277 232.964 66.277 232.964V251.639C66.3101 270.173 52.6466 280.226 35.7862 280.226Z" fill="#080C20"/>
<path fill-rule="evenodd" clip-rule="evenodd" d="M4.39475 251.639C4.39475 269.238 17.0256 281.053 35.7861 281.053C54.5217 281.053 67.1443 269.238 67.1113 251.622V232.947C67.113 232.629 66.9326 232.339 66.6473 232.199C66.3619 232.06 66.0221 232.097 65.773 232.294L65.7677 232.298C65.4899 232.509 55.6826 239.969 44.7078 237.829C37.6365 236.489 31.573 231.466 26.6826 222.936C26.5056 222.629 26.1536 222.47 25.8069 222.539C25.4638 222.604 25.1992 222.879 25.1461 223.225C25.146 223.226 25.1458 223.227 25.1456 223.228C25.1181 223.4 23.836 231.417 17.9261 235.636C14.5804 238.036 10.3261 238.772 5.36953 237.837C5.12608 237.793 4.87546 237.86 4.68664 238.02C4.49782 238.18 4.3907 238.417 4.39475 238.665V251.639ZM6.04692 251.672V239.683L6.07996 239.649C11.0943 240.394 15.4147 239.509 18.9504 237.043C23.5847 233.733 25.5591 228.471 26.3852 225.575C31.3417 233.452 37.4134 238.144 44.46 239.517C53.96 241.321 62.3447 236.654 65.5252 234.553V251.672C65.5252 270.851 50.606 279.431 35.7861 279.431C20.9661 279.431 6.04692 270.851 6.04692 251.672Z" fill="#093F68"/>
<ellipse cx="20.6604" cy="250.637" rx="2.93261" ry="2.93731" fill="#093F68"/>
<ellipse cx="50.9036" cy="250.637" rx="2.93261" ry="2.93731" fill="#093F68"/>
<path d="M36.1001 260.277C35.1484 260.27 34.1986 260.192 33.2583 260.045C33.0425 260.007 32.8507 259.884 32.7252 259.704C32.5997 259.524 32.5508 259.301 32.5892 259.085C32.6275 258.869 32.75 258.677 32.9297 258.551C33.1094 258.426 33.3317 258.377 33.5475 258.415C35.0167 258.652 36.5144 258.652 37.9836 258.415C38.2397 257.654 37.1575 254.427 35.5053 251.366C35.3597 251.103 35.3674 250.782 35.5256 250.527C35.6837 250.272 35.9673 250.123 36.2667 250.137C36.5661 250.151 36.8343 250.327 36.9675 250.596C37.7936 252.127 40.2718 257.265 39.4457 259.152C39.2627 259.571 38.8917 259.878 38.4462 259.979C37.6791 260.173 36.8913 260.273 36.1001 260.277Z" fill="#093F68"/>
<path d="M0.636197 229.125H5.25402V259.358H0.636197C-2.74451 259.358 -5.48511 256.613 -5.48511 253.227V235.256C-5.48511 231.87 -2.74451 229.125 0.636197 229.125Z" fill="#093F68"/>
<path fill-rule="evenodd" clip-rule="evenodd" d="M0.636112 260.178H5.25394C5.71017 260.178 6.08002 259.807 6.08002 259.35V229.125C6.08002 228.668 5.71017 228.297 5.25394 228.297H0.636112C-3.19894 228.302 -6.30673 231.415 -6.31128 235.256V253.227C-6.30672 257.067 -3.1976 260.178 0.636112 260.178ZM-4.65911 235.256C-4.65911 232.327 -2.28836 229.952 0.636112 229.952H4.42785V258.523H0.636112C-2.28513 258.523 -4.65455 256.153 -4.65911 253.227V235.256Z" fill="#093F68"/>
<path d="M70.9361 259.35H66.3182V229.116H70.9361C74.3168 229.116 77.0574 231.861 77.0574 235.248V253.219C77.0574 256.605 74.3168 259.35 70.9361 259.35Z" fill="#093F68"/>
<path fill-rule="evenodd" clip-rule="evenodd" d="M66.3183 260.178H70.9278C74.7616 260.178 77.8707 257.067 77.8752 253.227V235.256C77.8707 231.415 74.7629 228.302 70.9278 228.297H66.3183C65.862 228.297 65.4922 228.668 65.4922 229.125V259.35C65.4922 259.807 65.862 260.178 66.3183 260.178ZM70.9278 258.523H67.1444V229.952H70.9278C73.8523 229.952 76.2231 232.327 76.2231 235.256V253.227C76.2185 256.153 73.8491 258.523 70.9278 258.523Z" fill="#093F68"/>
<path d="M36.067 271.604C33.8816 271.649 31.7216 271.128 29.797 270.09C28.0421 269.161 26.6361 267.685 25.7905 265.887C25.6217 265.462 25.8288 264.98 26.2531 264.811C26.6774 264.642 27.1582 264.849 27.327 265.274C27.4592 265.614 30.8296 273.433 44.6748 268.071C45.1014 267.907 45.5804 268.12 45.7446 268.547C45.9089 268.974 45.6962 269.454 45.2696 269.618C42.348 270.835 39.2295 271.507 36.067 271.604Z" fill="#093F68"/>
<path d="M15.7451 275.046C11.7469 275.046 6.34427 274.583 3.60992 272.374C-0.999646 268.634 -0.826168 259.805 -0.817907 259.433C-0.817907 258.976 -0.448055 258.605 0.00818008 258.605C0.464415 258.605 0.834267 258.976 0.834267 259.433C0.834267 259.516 0.677311 267.823 4.64253 271.017C8.60775 274.21 20.3382 273.118 20.4704 273.11C20.9213 273.067 21.323 273.395 21.3708 273.846C21.3939 274.065 21.3294 274.283 21.1915 274.454C21.0536 274.625 20.8536 274.734 20.6356 274.756C20.4373 274.839 18.3969 275.046 15.7451 275.046Z" fill="#093F68"/>
<path fill-rule="evenodd" clip-rule="evenodd" d="M14.6134 277.313H22.5273C24.553 277.313 26.1951 275.668 26.1951 273.64C26.1951 271.611 24.553 269.966 22.5273 269.966H14.6134C12.5877 269.966 10.9456 271.611 10.9456 273.64C10.9456 275.668 12.5877 277.313 14.6134 277.313ZM12.5977 273.623C12.5977 272.508 13.5002 271.604 14.6134 271.604H22.5273C23.6405 271.604 24.5429 272.508 24.5429 273.623C24.5429 274.738 23.6405 275.642 22.5273 275.642H14.6134C13.5002 275.642 12.5977 274.738 12.5977 273.623Z" fill="#093F68"/>
<path d="M21.9245 285.314H49.6892C59.5941 285.314 67.6236 293.357 67.6236 303.277V342.447H4.01489V303.286C4.01033 293.371 12.026 285.328 21.9245 285.314Z" fill="#080C20"/>
<path fill-rule="evenodd" clip-rule="evenodd" d="M4.02311 343.283H67.6318C67.8566 343.292 68.0753 343.209 68.2374 343.052C68.3996 342.896 68.4911 342.681 68.4909 342.455V303.286C68.4818 292.907 60.0841 284.496 49.7222 284.487H21.9575C11.5988 284.501 3.20612 292.91 3.19702 303.286V342.455C3.19702 342.912 3.56687 343.283 4.02311 343.283ZM66.8057 341.628H4.8492L4.81615 303.286C4.82525 293.824 12.4782 286.155 21.9244 286.142H49.6892C59.1367 286.155 66.7921 293.823 66.8057 303.286V341.628Z" fill="#093F68"/>
<path d="M13.614 244.68C12.9361 244.66 12.3849 244.126 12.342 243.448C12.2992 242.77 12.7788 242.171 13.4488 242.065L27.0958 240.353C27.7887 240.31 28.3954 240.814 28.4807 241.504C28.566 242.194 28.1004 242.832 27.4179 242.959L13.771 244.672L13.614 244.68Z" fill="#093F68"/>
<path d="M57.9581 244.68H57.826L44.179 242.967C43.4965 242.84 43.031 242.203 43.1163 241.512C43.2016 240.822 43.8083 240.318 44.5012 240.361L58.1481 242.074C58.8173 242.178 59.2972 242.775 59.2566 243.453C59.216 244.13 58.668 244.665 57.9912 244.688L57.9581 244.68Z" fill="#093F68"/>
<path d="M35.8108 300.208C28.88 300.208 18.8926 285.314 18.8926 285.314H52.7208C52.7208 285.314 42.7334 300.208 35.8108 300.208Z" fill="#080C20"/>
<path fill-rule="evenodd" clip-rule="evenodd" d="M18.2138 285.788C18.7264 286.543 28.5609 301.035 35.8108 301.035C42.737 301.035 52.0425 287.778 53.3171 285.962C53.3818 285.87 53.4258 285.808 53.4477 285.778C53.6109 285.531 53.6298 285.215 53.4973 284.95C53.3528 284.678 53.0695 284.509 52.7621 284.512H18.9338C18.6293 284.512 18.35 284.681 18.2069 284.95C18.0593 285.206 18.0593 285.522 18.2069 285.778C18.209 285.781 18.2113 285.784 18.2138 285.788ZM35.8108 299.38C30.9864 299.38 23.783 290.767 20.4786 286.142H51.143C47.8138 290.767 40.6351 299.38 35.8108 299.38Z" fill="#093F68"/>
<path fill-rule="evenodd" clip-rule="evenodd" d="M22.9321 285.902C23.7334 286.721 27.6326 290.527 30.2595 290.527C30.4662 290.529 30.6721 290.501 30.8708 290.444C33.3161 289.774 36.0752 286.224 36.3808 285.819C36.571 285.569 36.603 285.232 36.4634 284.95C36.3245 284.666 36.0359 284.486 35.72 284.487H23.5187C23.183 284.485 22.8796 284.687 22.7509 284.997C22.6222 285.307 22.6938 285.665 22.9321 285.902ZM30.433 288.856C29.5656 289.087 27.5169 287.796 25.6087 286.142H33.9439C32.9113 287.25 31.5234 288.549 30.433 288.856Z" fill="#093F68"/>
<path fill-rule="evenodd" clip-rule="evenodd" d="M40.7508 290.444C40.9467 290.501 41.1499 290.529 41.3539 290.527C43.9808 290.527 47.913 286.713 48.6895 285.902C48.9239 285.664 48.9924 285.308 48.863 285C48.7363 284.691 48.4365 284.489 48.103 284.487H35.8934C35.579 284.488 35.2923 284.667 35.1538 284.95C35.0153 285.233 35.049 285.569 35.2408 285.819C35.5465 286.224 38.2726 289.774 40.7508 290.444ZM41.1887 288.856C40.09 288.549 38.6939 287.25 37.6778 286.142H46.0048C44.1048 287.788 42.0148 289.087 41.1887 288.856Z" fill="#093F68"/>
<path d="M35.8935 301.035C35.4372 301.035 35.0674 300.665 35.0674 300.208V285.314C35.0674 284.857 35.4372 284.487 35.8935 284.487C36.3497 284.487 36.7196 284.857 36.7196 285.314V300.208C36.7196 300.665 36.3497 301.035 35.8935 301.035Z" fill="#093F68"/>
<path d="M-2.75085 282.005C-2.75085 282.005 -23.6096 321.563 -15.9682 329.912C-8.32694 338.26 1.23915 332.667 4.03132 326.602C6.82349 320.537 8.10393 286.497 8.10393 286.497L-2.75085 282.005Z" fill="#080C20"/>
<path fill-rule="evenodd" clip-rule="evenodd" d="M-16.5466 330.474C-13.2835 334.024 -9.91309 334.967 -7.25309 334.967C-6.66471 334.975 -6.07656 334.939 -5.49353 334.86C-1.00606 334.031 2.81756 331.108 4.79952 326.991C7.5602 321.027 8.8006 289.824 8.92213 286.767C8.9257 286.677 8.9283 286.612 8.92995 286.572C8.95643 286.214 8.74957 285.88 8.41778 285.744L-2.437 281.243C-2.83024 281.077 -3.28491 281.239 -3.48613 281.616C-4.34527 283.254 -24.5266 321.787 -16.5466 330.474ZM-15.3322 329.349C-21.1809 322.986 -8.27744 294.416 -2.37092 283.055L7.24474 287.052C7.063 291.512 5.78256 320.852 3.3043 326.263C1.55105 329.87 -1.79867 332.437 -5.73309 333.188C-9.20266 333.734 -12.5235 332.41 -15.3322 329.349Z" fill="#093F68"/>
<path d="M3.75859 266.78C3.75859 266.78 17.5625 265.39 18.8016 268.493C20.0408 271.596 15.6955 272.374 10.5821 271.753C10.5821 271.753 14.7703 274.086 14.7703 278.124C14.7703 282.162 8.10381 286.497 8.10381 286.497L-2.75098 281.996C-2.75098 281.996 -2.60228 270.355 3.75859 266.78Z" fill="#080C20"/>
<path fill-rule="evenodd" clip-rule="evenodd" d="M7.78186 287.267C7.88472 287.306 7.99398 287.326 8.10403 287.325C8.25989 287.332 8.41455 287.295 8.55012 287.217C8.5655 287.206 8.59918 287.182 8.64918 287.148C9.53903 286.529 15.5966 282.315 15.5966 278.116C15.5375 276.086 14.6758 274.164 13.201 272.771C15.5719 272.812 18.1988 272.498 19.314 271.033C19.9275 270.205 20.0264 269.103 19.5701 268.179C18.2071 264.761 7.06316 265.614 3.67621 265.953C3.56259 265.961 3.4523 265.994 3.35403 266.052C-3.33727 269.817 -3.57684 281.492 -3.57684 281.988C-3.5799 282.323 -3.38095 282.627 -3.07292 282.758L7.78186 287.267ZM-1.89944 281.45L-1.89988 281.45V281.459C-1.89973 281.456 -1.89958 281.453 -1.89944 281.45ZM8.01316 285.587L-1.89944 281.45C-1.77403 279.163 -0.952314 270.542 3.9736 267.608C10.3014 266.987 17.3975 267.268 18.0171 268.816C18.3227 269.527 18.1575 269.858 18.0171 270.049C17.4388 270.81 15.1671 271.497 10.6897 270.95C10.2946 270.897 9.9181 271.134 9.7945 271.514C9.67089 271.893 9.83547 272.307 10.1858 272.498C10.2271 272.514 13.9527 274.624 13.9527 278.141C13.9527 280.896 9.95447 284.239 8.01316 285.587Z" fill="#093F68"/>
<path d="M66.9131 354.519H2.24698C-0.874288 354.524 -3.47134 352.117 -3.7091 349L-6.59215 311.767C-6.72108 310.104 -6.15152 308.463 -5.02078 307.24C-3.89004 306.016 -2.30073 305.321 -0.636061 305.321H69.7878C71.4525 305.321 73.0418 306.016 74.1726 307.24C75.3033 308.463 75.8729 310.104 75.7439 311.767L72.8609 349C72.6234 352.114 70.0312 354.519 66.9131 354.519Z" fill="#080C20"/>
<path fill-rule="evenodd" clip-rule="evenodd" d="M2.24693 355.346H66.913C70.455 355.328 73.3957 352.602 73.6869 349.066L76.57 311.833C76.7148 309.94 76.0656 308.073 74.7785 306.68C73.4913 305.287 71.6827 304.495 69.7878 304.494H-0.636115C-2.53102 304.495 -4.3396 305.287 -5.62677 306.68C-6.91393 308.073 -7.56317 309.94 -7.41829 311.833L-4.53525 349.066C-4.24377 352.605 -1.29818 355.333 2.24693 355.346ZM-4.40702 307.78C-3.43297 306.724 -2.06304 306.124 -0.627854 306.124H69.7961C71.2312 306.124 72.6012 306.724 73.5752 307.78C74.5493 308.836 75.0389 310.251 74.9261 311.684L72.0513 348.917C71.8324 351.599 69.5996 353.667 66.913 353.675H2.25519C-0.431395 353.667 -2.66421 351.599 -2.88307 348.917L-5.75785 311.684C-5.87073 310.251 -5.38106 308.836 -4.40702 307.78Z" fill="#093F68"/>
<path fill-rule="evenodd" clip-rule="evenodd" d="M27.8145 329.912C27.8145 333.65 30.8398 336.68 34.5718 336.68C38.302 336.675 41.3247 333.648 41.3292 329.912C41.3292 326.174 38.3038 323.143 34.5718 323.143C30.8398 323.143 27.8145 326.174 27.8145 329.912ZM29.4666 329.912C29.4666 327.088 31.7523 324.798 34.5718 324.798C37.3895 324.803 39.6725 327.09 39.6771 329.912C39.6771 332.736 37.3914 335.025 34.5718 335.025C31.7523 335.025 29.4666 332.736 29.4666 329.912Z" fill="#093F68"/>
<path fill-rule="evenodd" clip-rule="evenodd" d="M123.872 215.839H143.807C144.307 215.839 144.713 215.432 144.713 214.929V194.91C144.713 194.407 144.307 194 143.807 194H123.872C123.372 194 122.966 194.407 122.966 194.91V214.929C122.966 215.432 123.372 215.839 123.872 215.839ZM142.901 214.019H124.778V195.82H142.901V214.019Z" fill="#093F68"/>
<path fill-rule="evenodd" clip-rule="evenodd" d="M110 216.651C110.008 223.247 115.338 228.588 121.906 228.583C125.065 228.581 128.093 227.317 130.323 225.071C132.553 222.825 133.802 219.78 133.795 216.608C133.78 210.012 128.445 204.676 121.876 204.688C115.308 204.7 109.992 210.055 110 216.651ZM112.579 212.771C114.141 208.982 117.823 206.513 121.906 206.517C127.457 206.527 131.958 211.035 131.983 216.608C131.997 220.709 129.548 224.413 125.78 225.992C122.011 227.571 117.667 226.711 114.776 223.816C111.885 220.92 111.017 216.56 112.579 212.771Z" fill="#093F68"/>
</svg>
